<svg width="24" height="26" viewBox="0 0 24 26" fill="none" xmlns="http://www.w3.org/2000/svg">
<path d="M6.91932 3.16253C9.39887 1.72084 10.6387 1 12 1C13.3613 1 14.6011 1.72084 17.0807 3.16253L17.9193 3.65015C20.3989 5.09184 21.6387 5.81268 22.3193 7C23 8.18732 23 9.62901 23 12.5124V13.4876C23 16.371 23 17.8127 22.3193 19C21.6387 20.1873 20.3989 20.9081 17.9193 22.3498L17.0807 22.8375C14.6011 24.2792 13.3613 25 12 25C10.6387 25 9.39887 24.2792 6.91932 22.8375L6.08068 22.3498C3.60113 20.9081 2.36136 20.1873 1.68068 19C1 17.8127 1 16.371 1 13.4876V12.5124C1 9.62901 1 8.18732 1.68068 7C2.36136 5.81268 3.60113 5.09184 6.08068 3.65015L6.91932 3.16253Z" stroke="white" stroke-width="1.5"/>
<path d="M12.0002 16.7376C14.0989 16.7376 15.8002 15.0642 15.8002 12.9999C15.8002 10.9356 14.0989 9.26221 12.0002 9.26221C9.90151 9.26221 8.2002 10.9356 8.2002 12.9999C8.2002 15.0642 9.90151 16.7376 12.0002 16.7376Z" stroke="white" stroke-width="1.5"/>
</svg>
