<svg width="26" height="26" viewBox="0 0 26 26" fill="none" xmlns="http://www.w3.org/2000/svg">
<path d="M9 19.6466H17M1 16.4346V13.1291C1 11.5917 1 10.823 1.1974 10.1151C1.37227 9.48802 1.65964 8.89825 2.0454 8.37471C2.48089 7.7837 3.08539 7.31177 4.29437 6.36791L7.76104 3.66147C9.63477 2.19863 10.5716 1.46722 11.6061 1.18606C12.5189 0.937981 13.4811 0.937981 14.3939 1.18606C15.4284 1.46722 16.3652 2.19864 18.2389 3.66147L21.7056 6.36791C22.9147 7.31177 23.5191 7.7837 23.9545 8.37471C24.3404 8.89825 24.6277 9.48802 24.8025 10.1151C25 10.823 25 11.5917 25 13.1291V16.4346C25 19.4327 25 20.9319 24.4187 22.077C23.9073 23.0843 23.0915 23.9034 22.088 24.4166C20.9471 25 19.4536 25 16.4667 25H9.53333C6.54639 25 5.05292 25 3.91205 24.4166C2.90852 23.9034 2.09263 23.0843 1.58129 22.077C1 20.9319 1 19.4327 1 16.4346Z" stroke="white" stroke-width="1.5" stroke-linecap="square" stroke-linejoin="round"/>
</svg>
