<svg width="22" height="26" viewBox="0 0 22 26" fill="none" xmlns="http://www.w3.org/2000/svg">
<path d="M21 17.9091V11.917C21 6.7707 21 4.19752 19.5356 2.59876C18.0711 1 15.714 1 11 1C6.28596 1 3.92893 1 2.46447 2.59876C1 4.19752 1 6.7707 1 11.917V17.9091C1 21.625 1 23.483 1.81568 24.2948C2.20468 24.682 2.69572 24.9253 3.2188 24.9898C4.31558 25.1254 5.59637 23.9019 8.15796 21.455C9.29022 20.3734 9.85644 19.8326 10.5114 19.6901C10.834 19.6199 11.166 19.6199 11.4886 19.6901C12.1436 19.8326 12.7098 20.3734 13.842 21.455C16.4037 23.9019 17.6844 25.1254 18.7812 24.9898C19.3043 24.9253 19.7953 24.682 20.1843 24.2948C21 23.483 21 21.625 21 17.9091Z" stroke="white" stroke-width="1.5"/>
<path d="M14.3327 5.93115H7.66602" stroke="white" stroke-width="1.5" stroke-linecap="square"/>
</svg>
